<svg enable-background="new 0 0 1106.33 522.01" viewBox="0 0 1106.33 522.01" xmlns="http://www.w3.org/2000/svg"><path d="m-475.77 203.53c-6.24-15.04-14.96-28.12-26.18-39.26-5.36-5.32-11.16-10.04-17.4-14.22.24 3.57.39 7.18.37 10.87-.11 17.96-3.39 34.47-9.82 49.54s-15.32 28.04-26.67 38.92c-10.31 9.88-22.19 17.69-35.61 23.48-1.36.59-2.72 1.18-4.11 1.72-15.12 5.93-31.43 8.83-48.94 8.72-13.73-.09-26.7-2.05-38.92-5.84 1.29 1.47 2.63 2.92 4 4.33 10.95 11.29 23.98 20.1 39.09 26.43s31.64 9.5 49.6 9.5c17.95 0 34.43-3.17 49.43-9.5s28.03-15.14 39.09-26.43c1.05-1.07 2.05-2.17 3.05-3.28 9.57-10.54 17.11-22.62 22.57-36.28 2.67-6.69 4.71-13.63 6.2-20.8-1.45-6.17-3.36-12.14-5.75-17.9z" fill="#2f539e"/><path d="m-476.22 144.49c-6.03-15.08-14.57-28.27-25.62-39.55-11.06-11.28-24.09-20.09-39.09-26.43-3.66-1.54-7.41-2.89-11.24-4.06-11.89-3.62-24.62-5.44-38.19-5.44-13.2 0-25.61 1.73-37.27 5.15-10.21 10.46-18.32 22.61-24.29 36.49-5.11 11.89-8.19 24.73-9.31 38.51 6.87-4.48 14.24-8.28 22.14-11.38 15.12-5.92 31.44-8.83 48.94-8.72s33.78 3.23 48.82 9.34c7.86 3.2 15.18 7.09 21.99 11.66 6.23 4.17 12.04 8.9 17.4 14.22 11.22 11.13 19.94 24.22 26.18 39.26 2.39 5.76 4.3 11.73 5.76 17.91 1.86-8.99 2.83-18.34 2.83-28.08-.01-17.5-3.03-33.8-9.05-48.88z" fill="#33b3b1"/><path d="m-626.38 248.93c-11.21-11.02-19.94-24.11-26.18-39.26-6.23-15.15-9.3-31.7-9.18-49.66.02-3.69.21-7.3.5-10.86 1.12-13.78 4.2-26.62 9.31-38.51 5.97-13.88 14.09-26.03 24.29-36.49-4.21 1.23-8.32 2.67-12.33 4.35-15.11 6.34-28.14 15.15-39.09 26.43-10.95 11.29-19.44 24.47-25.46 39.55-6.02 15.09-9.03 31.38-9.03 48.88 0 8.84.77 17.36 2.31 25.59 1.5 8.06 3.74 15.83 6.73 23.29 5.27 13.19 12.42 24.94 21.45 35.22 12.22 3.79 25.19 5.75 38.92 5.84 17.5.11 33.82-2.79 48.94-8.72 1.39-.54 2.75-1.13 4.11-1.72-13.32-5.96-25.1-13.92-35.29-23.93z" fill="#0c83c6"/><path d="m-939.73 302.54v-221.1c0-5.44 4.41-9.86 9.86-9.86h40.49c5.44 0 9.86 4.41 9.86 9.86v80.57h94.23v-80.57c0-5.44 4.41-9.86 9.86-9.86h40.49c5.44 0 9.86 4.41 9.86 9.86v221.1c0 5.44-4.41 9.86-9.86 9.86h-40.49c-5.44 0-9.86-4.41-9.86-9.86v-76.87h-94.23v76.87c0 5.44-4.41 9.86-9.86 9.86h-40.49c-5.45 0-9.86-4.42-9.86-9.86z" fill="#2f539e"/><path d="m-455.83 298.54v-221.1c0-5.44 4.41-9.86 9.86-9.86h43.45c3.76 0 7.2 2.14 8.85 5.52l62.73 127.98 62.36-127.96c1.65-3.39 5.09-5.54 8.86-5.54h43.06c5.44 0 9.86 4.41 9.86 9.86v221.1c0 5.44-4.41 9.86-9.86 9.86h-40.49c-5.44 0-9.86-4.41-9.86-9.86v-128.5l-44.79 91.69c-1.65 3.38-5.09 5.53-8.86 5.53h-20.99c-3.76 0-7.18-2.13-8.84-5.5l-45.15-91.72v128.5c0 5.44-4.41 9.86-9.86 9.86h-40.49c-5.42 0-9.84-4.42-9.84-9.86z" fill="#2f539e"/><g fill="#fff"><path d="m-908.51 394.16h-21.92l-5.36 14.24h-3.97l18.58-48.86h1.81c1.11 0 1.95.72 2.51 2.16l17.6 46.7h-3.97zm-20.74-3.28h19.55l-9.74-26.18h-.07z"/><path d="m-876.5 359.54h3.83v22.48h28.11v-22.48h3.83v48.86h-3.83v-22.96h-28.11v22.96h-3.83z"/><path d="m-828.46 405.6c-2.25-2.23-3.38-5.19-3.38-8.86v-10.82c0-3.86 1.12-6.98 3.38-9.35 2.25-2.37 5.21-3.56 8.87-3.56h5.71c3.53 0 6.37 1.15 8.52 3.45 2.16 2.3 3.24 5.36 3.24 9.18v5.86h-25.96v5.24c0 2.65.78 4.79 2.33 6.42s3.61 2.44 6.16 2.44h5.29c2.51 0 4.53-.73 6.09-2.2 1.55-1.47 2.33-3.39 2.33-5.76h3.62c0 3.4-1.1 6.13-3.31 8.2-2.2 2.07-5.11 3.11-8.73 3.11h-5.29c-3.66 0-6.62-1.11-8.87-3.35zm22.65-17.31v-2.65c0-2.79-.74-5.04-2.23-6.74s-3.43-2.55-5.85-2.55h-5.71c-2.55 0-4.6.88-6.16 2.65-1.55 1.77-2.33 4.07-2.33 6.91v2.37h22.28z"/><path d="m-792.17 406.41c-1.95-1.7-2.92-3.97-2.92-6.81v-2.65c0-2.84 1-5.09 2.99-6.77 1.99-1.67 4.64-2.51 7.93-2.51h4.52c1.58 0 3.21.26 4.91.77 1.69.51 3.14 1.21 4.35 2.09v-6.77c0-2.19-.67-3.98-2.02-5.37-1.35-1.4-3.09-2.09-5.22-2.09h-5.43c-2.18 0-3.94.51-5.29 1.54-1.35 1.02-2.02 2.4-2.02 4.12h-3.76c0-2.7 1.02-4.86 3.06-6.49s4.71-2.44 8-2.44h5.43c3.29 0 5.93.98 7.9 2.93s2.96 4.56 2.96 7.82v24.64h-3.55v-5.44c-1.21 1.86-2.69 3.33-4.45 4.4s-3.55 1.61-5.36 1.61h-4.24c-3.24-.04-5.84-.88-7.79-2.58zm12.11-.81c1.95 0 3.82-.7 5.6-2.09 1.79-1.4 3.14-3.23 4.07-5.52v-3.77c-1.02-.98-2.38-1.77-4.07-2.37s-3.42-.91-5.18-.91h-4.52c-2.18 0-3.92.55-5.22 1.64s-1.95 2.55-1.95 4.36v2.65c0 1.82.63 3.27 1.88 4.36s2.95 1.64 5.08 1.64h4.31z"/><path d="m-755.22 406.3c-1.3-1.4-1.95-3.72-1.95-6.98v-39.79h3.76v39.79c0 2.05.36 3.51 1.08 4.4.72.88 1.91 1.33 3.58 1.33h2.23v3.35h-2.23c-3.01 0-5.17-.7-6.47-2.1z"/><path d="m-734.76 406.13c-1.53-1.51-2.3-4.01-2.3-7.5v-21.71h-6.12v-3.35h6.12v-10.54h3.69v10.54h9.05v3.35h-9.05v21.71c0 2.28.46 3.92 1.39 4.92s2.48 1.5 4.66 1.5h2.99v3.35h-2.85c-3.52 0-6.05-.76-7.58-2.27z"/><path d="m-715.7 359.54h3.76v19.75c1.16-1.95 2.61-3.49 4.35-4.61s3.54-1.67 5.39-1.67h4.8c3.01 0 5.46 1.06 7.34 3.18s2.82 4.92 2.82 8.41v23.8h-3.69v-23.87c0-2.42-.6-4.39-1.81-5.9s-2.78-2.27-4.73-2.27h-4.66c-2.09 0-4.06.85-5.91 2.55-1.86 1.7-3.16 3.92-3.9 6.67v22.82h-3.76z"/><path d="m-675.72 405.57c-2.2-2.26-3.31-5.22-3.31-8.9v-10.75c0-3.86 1.1-6.98 3.31-9.35 2.2-2.37 5.09-3.56 8.66-3.56h5.71c3.39 0 6.11.93 8.18 2.79 2.06 1.86 3.1 4.31 3.1 7.33h-3.62c0-2.05-.71-3.69-2.12-4.92-1.42-1.23-3.26-1.85-5.53-1.85h-5.71c-2.46 0-4.44.87-5.95 2.62-1.51 1.74-2.26 4.06-2.26 6.94v10.75c0 2.7.75 4.86 2.26 6.49s3.51 2.44 6.02 2.44h5.71c2.32 0 4.2-.81 5.64-2.44s2.16-3.77 2.16-6.42h3.62c0 3.68-1.04 6.63-3.13 8.86s-4.85 3.35-8.28 3.35h-5.71c-3.64 0-6.55-1.12-8.75-3.38z"/><path d="m-640.48 406.41c-1.95-1.7-2.92-3.97-2.92-6.81v-2.65c0-2.84 1-5.09 2.99-6.77 1.99-1.67 4.64-2.51 7.93-2.51h4.52c1.58 0 3.21.26 4.91.77 1.69.51 3.14 1.21 4.35 2.09v-6.77c0-2.19-.67-3.98-2.02-5.37-1.35-1.4-3.09-2.09-5.22-2.09h-5.43c-2.18 0-3.94.51-5.29 1.54-1.35 1.02-2.02 2.4-2.02 4.12h-3.76c0-2.7 1.02-4.86 3.06-6.49s4.71-2.44 8-2.44h5.43c3.29 0 5.93.98 7.9 2.93s2.96 4.56 2.96 7.82v24.64h-3.55v-5.44c-1.21 1.86-2.69 3.33-4.45 4.4s-3.55 1.61-5.36 1.61h-4.24c-3.24-.04-5.84-.88-7.79-2.58zm12.11-.81c1.95 0 3.82-.7 5.6-2.09 1.79-1.4 3.14-3.23 4.07-5.52v-3.77c-1.02-.98-2.38-1.77-4.07-2.37s-3.42-.91-5.18-.91h-4.52c-2.18 0-3.92.55-5.22 1.64s-1.95 2.55-1.95 4.36v2.65c0 1.82.63 3.27 1.88 4.36s2.95 1.64 5.08 1.64h4.31z"/><path d="m-605.48 373.57h3.62v5.65c1.02-1.77 2.48-3.18 4.38-4.22 1.9-1.05 3.94-1.57 6.12-1.57h2.57v3.35h-2.64c-3.02 0-5.49.98-7.41 2.93-1.93 1.95-2.89 4.49-2.89 7.61v21.08h-3.76v-34.83z"/><path d="m-581.78 405.6c-2.25-2.23-3.37-5.19-3.37-8.86v-10.82c0-3.86 1.12-6.98 3.37-9.35s5.21-3.56 8.87-3.56h5.71c3.53 0 6.37 1.15 8.52 3.45 2.16 2.3 3.24 5.36 3.24 9.18v5.86h-25.96v5.24c0 2.65.78 4.79 2.33 6.42s3.61 2.44 6.16 2.44h5.29c2.51 0 4.53-.73 6.09-2.2 1.55-1.47 2.33-3.39 2.33-5.76h3.62c0 3.4-1.1 6.13-3.31 8.2-2.2 2.07-5.11 3.11-8.73 3.11h-5.29c-3.67 0-6.62-1.11-8.87-3.35zm22.65-17.31v-2.65c0-2.79-.74-5.04-2.23-6.74s-3.43-2.55-5.85-2.55h-5.71c-2.55 0-4.6.88-6.16 2.65-1.55 1.77-2.33 4.07-2.33 6.91v2.37h22.28z"/><path d="m-523.26 406.83c-2.39-1.42-4.23-3.42-5.53-6s-1.95-5.55-1.95-8.9v-15.91c0-3.4.66-6.38 1.98-8.93s3.18-4.55 5.57-5.97 5.14-2.13 8.25-2.13h7.24c3.11 0 5.86.71 8.25 2.13s4.23 3.41 5.53 5.97 1.95 5.54 1.95 8.93v15.91c0 3.35-.66 6.32-1.98 8.9s-3.18 4.58-5.57 6-5.14 2.13-8.25 2.13h-7.24c-3.11-.01-5.86-.71-8.25-2.13zm15.41-1.37c3.57 0 6.47-1.24 8.7-3.73s3.34-5.76 3.34-9.81v-15.91c0-4.09-1.1-7.39-3.31-9.88-2.2-2.49-5.09-3.73-8.66-3.73h-7.1c-3.62 0-6.53 1.24-8.73 3.73s-3.31 5.78-3.31 9.88v15.91c0 4.05 1.1 7.32 3.31 9.81 2.2 2.49 5.09 3.73 8.66 3.73z"/><path d="m-483.07 373.57h3.62v5.44c1.02-1.81 2.38-3.27 4.07-4.36s3.42-1.64 5.18-1.64h5.08c3.52 0 6.37 1.15 8.52 3.45 2.16 2.3 3.24 5.34 3.24 9.11v9.49c0 4.19-1.09 7.55-3.27 10.09s-5.1 3.8-8.77 3.8h-5.08c-1.67 0-3.31-.49-4.91-1.47s-2.91-2.28-3.93-3.91v18.71h-3.76v-48.71zm17.6 32.03c2.55 0 4.59-.97 6.12-2.9s2.3-4.48 2.3-7.64v-9.49c0-2.75-.74-4.97-2.23-6.67s-3.46-2.55-5.91-2.55h-5.01c-2.04 0-3.91.83-5.6 2.48s-2.86 3.64-3.51 5.97v12.01c.42 2.33 1.46 4.37 3.13 6.14s3.62 2.65 5.85 2.65z"/><path d="m-442.75 405.6c-2.25-2.23-3.37-5.19-3.37-8.86v-10.82c0-3.86 1.12-6.98 3.37-9.35s5.21-3.56 8.87-3.56h5.71c3.53 0 6.37 1.15 8.52 3.45 2.16 2.3 3.24 5.36 3.24 9.18v5.86h-25.96v5.24c0 2.65.78 4.79 2.33 6.42s3.61 2.44 6.16 2.44h5.29c2.51 0 4.53-.73 6.09-2.2 1.55-1.47 2.33-3.39 2.33-5.76h3.62c0 3.4-1.1 6.13-3.31 8.2-2.2 2.07-5.11 3.11-8.73 3.11h-5.29c-3.66 0-6.62-1.11-8.87-3.35zm22.65-17.31v-2.65c0-2.79-.74-5.04-2.23-6.74s-3.43-2.55-5.85-2.55h-5.71c-2.55 0-4.6.88-6.16 2.65-1.55 1.77-2.33 4.07-2.33 6.91v2.37h22.28z"/><path d="m-408.2 373.57h3.62v5.65c1.02-1.77 2.48-3.18 4.38-4.22 1.9-1.05 3.94-1.57 6.12-1.57h2.57v3.35h-2.64c-3.02 0-5.49.98-7.41 2.93-1.93 1.95-2.89 4.49-2.89 7.61v21.08h-3.76v-34.83z"/><path d="m-384.75 406.41c-1.95-1.7-2.92-3.97-2.92-6.81v-2.65c0-2.84 1-5.09 2.99-6.77 1.99-1.67 4.64-2.51 7.93-2.51h4.52c1.58 0 3.21.26 4.91.77 1.69.51 3.14 1.21 4.35 2.09v-6.77c0-2.19-.67-3.98-2.02-5.37-1.35-1.4-3.09-2.09-5.22-2.09h-5.43c-2.18 0-3.94.51-5.29 1.54-1.35 1.02-2.02 2.4-2.02 4.12h-3.76c0-2.7 1.02-4.86 3.06-6.49s4.71-2.44 8-2.44h5.43c3.29 0 5.93.98 7.9 2.93s2.96 4.56 2.96 7.82v24.64h-3.55v-5.44c-1.21 1.86-2.69 3.33-4.45 4.4s-3.55 1.61-5.36 1.61h-4.24c-3.24-.04-5.84-.88-7.79-2.58zm12.11-.81c1.95 0 3.82-.7 5.6-2.09 1.79-1.4 3.14-3.23 4.07-5.52v-3.77c-1.02-.98-2.38-1.77-4.07-2.37s-3.42-.91-5.18-.91h-4.52c-2.18 0-3.92.55-5.22 1.64s-1.95 2.55-1.95 4.36v2.65c0 1.82.63 3.27 1.88 4.36s2.95 1.64 5.08 1.64h4.31z"/><path d="m-344.11 406.13c-1.53-1.51-2.3-4.01-2.3-7.5v-21.71h-6.12v-3.35h6.12v-10.54h3.69v10.54h9.05v3.35h-9.05v21.71c0 2.28.46 3.92 1.39 4.92s2.48 1.5 4.66 1.5h2.99v3.35h-2.85c-3.52 0-6.05-.76-7.58-2.27z"/><path d="m-324.18 366.8c-.58-.56-.87-1.3-.87-2.23s.29-1.69.87-2.27 1.33-.87 2.26-.87 1.67.29 2.23.87.84 1.34.84 2.27c0 .88-.28 1.62-.84 2.2s-1.3.87-2.23.87c-.92-.01-1.68-.29-2.26-.84zm.39 6.77h3.69v34.83h-3.69z"/><path d="m-306.82 405.43c-2.27-2.35-3.41-5.43-3.41-9.25v-10.4c0-3.81 1.15-6.9 3.44-9.25 2.3-2.35 5.32-3.53 9.08-3.53h5.5c3.76 0 6.78 1.18 9.08 3.53s3.44 5.43 3.44 9.25v10.4c0 3.82-1.16 6.9-3.48 9.25s-5.38 3.53-9.19 3.53h-5.5c-3.69-.01-6.68-1.18-8.96-3.53zm14.48.17c2.69 0 4.86-.86 6.51-2.58s2.47-4 2.47-6.84v-10.4c0-2.84-.81-5.12-2.44-6.84-1.62-1.72-3.76-2.58-6.4-2.58h-5.5c-2.64 0-4.77.86-6.37 2.58s-2.4 4-2.4 6.84v10.4c0 2.84.79 5.12 2.37 6.84s3.66 2.58 6.26 2.58z"/><path d="m-271.05 373.57h3.62v5.93c1.16-2 2.63-3.58 4.42-4.75 1.79-1.16 3.61-1.74 5.46-1.74h4.66c3.02 0 5.46 1.06 7.34 3.18s2.82 4.92 2.82 8.41v23.8h-3.69v-23.87c0-2.42-.6-4.39-1.81-5.9s-2.78-2.27-4.73-2.27h-4.52c-2.09 0-4.06.86-5.91 2.58-1.86 1.72-3.16 3.96-3.9 6.7v22.75h-3.76z"/><path d="m-231.91 406.06c-2.02-1.93-3.03-4.48-3.03-7.64h3.62c0 2.14.68 3.89 2.05 5.24s3.14 2.02 5.32 2.02h5.98c2.27 0 4.09-.46 5.46-1.4 1.37-.93 2.05-2.14 2.05-3.63v-2.72c0-1.02-.38-1.93-1.15-2.72s-1.75-1.3-2.96-1.54l-12.11-2.09c-2.27-.37-4.09-1.24-5.46-2.62-1.37-1.37-2.05-2.99-2.05-4.85v-2.37c0-2.6.96-4.71 2.89-6.32 1.92-1.61 4.46-2.41 7.62-2.41h5.91c3.06 0 5.53.88 7.41 2.65s2.82 4.09 2.82 6.98h-3.62c-.09-1.91-.73-3.44-1.91-4.61-1.18-1.16-2.75-1.74-4.7-1.74h-5.91c-2.04 0-3.69.5-4.94 1.5s-1.88 2.32-1.88 3.94v2.23c0 1.07.42 2.01 1.25 2.83.83.81 1.92 1.32 3.27 1.5l12.11 2.09c2.13.37 3.85 1.23 5.15 2.58s1.95 2.95 1.95 4.82v2.93c0 2.47-1.02 4.46-3.06 5.97s-4.76 2.27-8.14 2.27h-5.98c-3.29 0-5.94-.96-7.96-2.89z"/><path d="m-939.68 434.62h3.85l17.98 33.68 17.49-33.68h3.78v49.12h-3.78v-41.89l-15.6 29.89c-.33.61-.62 1.03-.87 1.26-.26.24-.55.35-.87.35h-1.19l-17-31.5v41.89h-3.78v-49.12z"/><path d="m-882.25 481.74c-1.96-1.71-2.94-3.99-2.94-6.84v-2.67c0-2.85 1-5.12 3.01-6.81 2-1.68 4.66-2.53 7.97-2.53h4.55c1.58 0 3.23.26 4.93.77 1.7.52 3.16 1.22 4.37 2.11v-6.81c0-2.2-.68-4-2.03-5.4s-3.1-2.11-5.25-2.11h-5.46c-2.19 0-3.96.52-5.32 1.54-1.35 1.03-2.03 2.41-2.03 4.14h-3.78c0-2.71 1.03-4.89 3.08-6.52 2.05-1.64 4.73-2.46 8.04-2.46h5.46c3.31 0 5.96.98 7.94 2.95 1.98 1.96 2.97 4.59 2.97 7.86v24.77h-3.57v-5.47c-1.21 1.87-2.71 3.35-4.48 4.42-1.77 1.08-3.57 1.61-5.39 1.61h-4.27c-3.24.01-5.85-.84-7.8-2.55zm12.17-.81c1.96 0 3.84-.7 5.63-2.1s3.16-3.25 4.09-5.54v-3.79c-1.03-.98-2.39-1.78-4.09-2.39s-3.44-.91-5.21-.91h-4.55c-2.19 0-3.94.55-5.25 1.65s-1.96 2.56-1.96 4.38v2.67c0 1.83.63 3.29 1.89 4.39s2.96 1.65 5.11 1.65h4.34z"/><path d="m-844.83 448.72h3.64v5.96c1.17-2.01 2.65-3.6 4.44-4.77s3.63-1.75 5.49-1.75h4.69c3.03 0 5.49 1.06 7.38 3.19s2.83 4.95 2.83 8.46v23.93h-3.71v-24c0-2.43-.61-4.41-1.82-5.93s-2.8-2.28-4.76-2.28h-4.55c-2.1 0-4.08.87-5.95 2.6s-3.17 3.98-3.92 6.74v22.87h-3.78v-35.02z"/><path d="m-802.72 481.74c-1.96-1.71-2.94-3.99-2.94-6.84v-2.67c0-2.85 1-5.12 3.01-6.81 2-1.68 4.66-2.53 7.97-2.53h4.55c1.58 0 3.23.26 4.93.77 1.7.52 3.16 1.22 4.37 2.11v-6.81c0-2.2-.68-4-2.03-5.4s-3.1-2.11-5.25-2.11h-5.46c-2.19 0-3.96.52-5.32 1.54-1.35 1.03-2.03 2.41-2.03 4.14h-3.78c0-2.71 1.03-4.89 3.08-6.52 2.05-1.64 4.73-2.46 8.04-2.46h5.46c3.31 0 5.96.98 7.94 2.95 1.98 1.96 2.97 4.59 2.97 7.86v24.77h-3.57v-5.47c-1.21 1.87-2.71 3.35-4.48 4.42-1.77 1.08-3.57 1.61-5.39 1.61h-4.27c-3.24.01-5.85-.84-7.8-2.55zm12.17-.81c1.96 0 3.84-.7 5.63-2.1s3.16-3.25 4.09-5.54v-3.79c-1.03-.98-2.39-1.78-4.09-2.39s-3.44-.91-5.21-.91h-4.55c-2.19 0-3.94.55-5.25 1.65s-1.96 2.56-1.96 4.38v2.67c0 1.83.63 3.29 1.89 4.39s2.96 1.65 5.11 1.65h4.34z"/><path d="m-761.74 495.7c-1.87-1.52-2.91-3.52-3.15-6h3.78c.19 1.5.87 2.7 2.06 3.61s2.67 1.37 4.44 1.37h5.81c2.61 0 4.64-.85 6.09-2.56 1.44-1.71 2.17-4.08 2.17-7.12v-6.88c-1.12 1.68-2.53 3.04-4.23 4.07s-3.42 1.54-5.14 1.54h-5.18c-3.45 0-6.25-1.19-8.39-3.58-2.15-2.39-3.22-5.54-3.22-9.47v-9.05c0-4.02 1.13-7.27 3.39-9.75s5.26-3.72 8.99-3.72h5.18c1.68 0 3.32.46 4.93 1.37s2.86 2.12 3.74 3.61v-4.42h3.64v36.28c0 4.07-1.05 7.25-3.15 9.54s-5.04 3.44-8.81 3.44h-5.81c-2.89 0-5.27-.76-7.14-2.28zm11.76-15.33c2.33 0 4.37-.92 6.12-2.77s2.86-4.01 3.32-6.49v-11.65c-.42-2.34-1.43-4.25-3.04-5.72s-3.46-2.21-5.56-2.21h-5.11c-2.61 0-4.71.94-6.3 2.81s-2.38 4.3-2.38 7.3v9.05c0 2.85.73 5.18 2.2 6.98s3.37 2.7 5.7 2.7z"/><path d="m-722.53 480.93c-2.26-2.24-3.39-5.21-3.39-8.91v-10.88c0-3.88 1.13-7.02 3.39-9.4 2.26-2.39 5.23-3.58 8.92-3.58h5.74c3.54 0 6.4 1.16 8.57 3.47 2.17 2.32 3.25 5.39 3.25 9.23v5.89h-26.09v5.26c0 2.67.78 4.82 2.34 6.46s3.63 2.45 6.19 2.45h5.32c2.52 0 4.56-.74 6.12-2.21s2.34-3.4 2.34-5.79h3.64c0 3.41-1.11 6.16-3.32 8.24-2.22 2.08-5.14 3.12-8.78 3.12h-5.32c-3.69.02-6.66-1.11-8.92-3.35zm22.77-17.4v-2.67c0-2.81-.75-5.06-2.24-6.77s-3.45-2.56-5.88-2.56h-5.74c-2.57 0-4.63.89-6.19 2.67s-2.34 4.09-2.34 6.95v2.39h22.39z"/><path d="m-640.86 451.04c1.72 1.92 2.59 4.51 2.59 7.79v24.91h-3.78v-24.98c0-2.2-.52-3.95-1.57-5.26s-2.46-1.96-4.23-1.96h-4.13c-2.05 0-3.79.75-5.21 2.25s-2.37 3.53-2.83 6.11v23.86h-3.78v-24.42c0-2.39-.5-4.28-1.5-5.68s-2.34-2.11-4.02-2.11h-4.06c-1.96 0-3.71.87-5.25 2.6s-2.59 3.98-3.15 6.74v22.87h-3.78v-35.01h3.64v5.68c1.03-1.96 2.28-3.5 3.78-4.6 1.49-1.1 3.08-1.65 4.76-1.65h4.13c1.91 0 3.59.54 5.04 1.61 1.44 1.08 2.49 2.57 3.15 4.49 1.03-1.96 2.32-3.47 3.88-4.52s3.28-1.58 5.14-1.58h4.27c2.87-.02 5.18.94 6.91 2.86z"/><path d="m-624.39 480.93c-2.26-2.24-3.39-5.21-3.39-8.91v-10.88c0-3.88 1.13-7.02 3.39-9.4 2.26-2.39 5.23-3.58 8.92-3.58h5.74c3.54 0 6.4 1.16 8.57 3.47 2.17 2.32 3.25 5.39 3.25 9.23v5.89h-26.09v5.26c0 2.67.78 4.82 2.34 6.46s3.63 2.45 6.19 2.45h5.32c2.52 0 4.56-.74 6.12-2.21s2.34-3.4 2.34-5.79h3.64c0 3.41-1.11 6.16-3.32 8.24-2.22 2.08-5.14 3.12-8.78 3.12h-5.32c-3.69.02-6.66-1.11-8.92-3.35zm22.77-17.4v-2.67c0-2.81-.75-5.06-2.24-6.77s-3.45-2.56-5.88-2.56h-5.74c-2.57 0-4.63.89-6.19 2.67s-2.34 4.09-2.34 6.95v2.39h22.39z"/><path d="m-587.42 448.72h3.64v5.96c1.17-2.01 2.65-3.6 4.44-4.77s3.63-1.75 5.49-1.75h4.69c3.03 0 5.49 1.06 7.38 3.19s2.83 4.95 2.83 8.46v23.93h-3.71v-24c0-2.43-.61-4.41-1.82-5.93s-2.8-2.28-4.76-2.28h-4.55c-2.1 0-4.08.87-5.95 2.6s-3.17 3.98-3.92 6.74v22.87h-3.78v-35.02z"/><path d="m-541.4 481.46c-1.54-1.52-2.31-4.03-2.31-7.54v-21.82h-6.16v-3.37h6.16v-10.6h3.71v10.6h9.09v3.37h-9.09v21.82c0 2.29.47 3.94 1.4 4.95s2.49 1.51 4.69 1.51h3.01v3.37h-2.87c-3.55-.01-6.09-.77-7.63-2.29z"/><path d="m-495.34 482.12c-2.31-1.45-4.09-3.5-5.35-6.14s-1.89-5.69-1.89-9.16v-15.37c0-3.46.64-6.5 1.92-9.12s3.1-4.65 5.46-6.11c2.35-1.45 5.05-2.17 8.08-2.17h7.41c2.89 0 5.46.63 7.69 1.89 2.24 1.26 3.96 3.03 5.18 5.3 1.21 2.27 1.82 4.88 1.82 7.82h-3.71c0-3.46-1-6.26-3.01-8.39s-4.66-3.19-7.97-3.19h-7.41c-3.45 0-6.25 1.29-8.39 3.86-2.15 2.57-3.22 5.94-3.22 10.1v15.37c0 4.21 1.04 7.59 3.11 10.14s4.81 3.82 8.22 3.82h7.55c3.4 0 6.13-1.16 8.18-3.47 2.05-2.32 3.08-5.39 3.08-9.23h3.71c0 3.23-.62 6.07-1.85 8.52-1.24 2.46-2.98 4.35-5.25 5.68-2.26 1.33-4.89 2-7.87 2h-7.55c-2.98.03-5.63-.7-7.94-2.15z"/><path d="m-452.91 480.76c-2.29-2.36-3.43-5.46-3.43-9.3v-10.46c0-3.83 1.15-6.93 3.46-9.3 2.31-2.36 5.35-3.54 9.13-3.54h5.53c3.78 0 6.82 1.18 9.13 3.54s3.46 5.46 3.46 9.3v10.45c0 3.84-1.17 6.94-3.5 9.3s-5.41 3.54-9.23 3.54h-5.53c-3.73.01-6.74-1.17-9.02-3.53zm14.54.17c2.7 0 4.88-.86 6.54-2.6 1.65-1.73 2.48-4.02 2.48-6.88v-10.45c0-2.85-.82-5.14-2.45-6.88-1.63-1.73-3.78-2.6-6.44-2.6h-5.53c-2.66 0-4.79.87-6.4 2.6s-2.41 4.02-2.41 6.88v10.45c0 2.85.79 5.15 2.38 6.88 1.58 1.73 3.68 2.6 6.3 2.6z"/><path d="m-370.03 451.04c1.72 1.92 2.59 4.51 2.59 7.79v24.91h-3.78v-24.98c0-2.2-.52-3.95-1.57-5.26s-2.46-1.96-4.23-1.96h-4.13c-2.05 0-3.79.75-5.21 2.25s-2.37 3.53-2.83 6.11v23.86h-3.78v-24.42c0-2.39-.5-4.28-1.5-5.68s-2.34-2.11-4.02-2.11h-4.06c-1.96 0-3.71.87-5.25 2.6s-2.59 3.98-3.15 6.74v22.87h-3.78v-35.01h3.64v5.68c1.03-1.96 2.28-3.5 3.78-4.6 1.49-1.1 3.08-1.65 4.76-1.65h4.13c1.91 0 3.59.54 5.04 1.61 1.44 1.08 2.49 2.57 3.15 4.49 1.03-1.96 2.32-3.47 3.88-4.52s3.28-1.58 5.14-1.58h4.27c2.88-.02 5.19.94 6.91 2.86z"/><path d="m-355.55 448.72h3.64v5.47c1.03-1.82 2.39-3.29 4.09-4.39s3.44-1.65 5.21-1.65h5.11c3.54 0 6.4 1.16 8.57 3.47 2.17 2.32 3.25 5.37 3.25 9.16v9.54c0 4.21-1.1 7.59-3.29 10.14s-5.13 3.82-8.81 3.82h-5.11c-1.68 0-3.32-.49-4.93-1.47s-2.93-2.29-3.95-3.93v18.8h-3.78zm17.7 32.21c2.56 0 4.62-.97 6.16-2.91s2.31-4.5 2.31-7.68v-9.54c0-2.76-.75-4.99-2.24-6.7s-3.47-2.56-5.95-2.56h-5.04c-2.05 0-3.93.83-5.63 2.49s-2.88 3.66-3.53 6v12.07c.42 2.34 1.47 4.4 3.15 6.17 1.68 1.78 3.64 2.67 5.88 2.67h4.89z"/><path d="m-313.02 481.74c-1.96-1.71-2.94-3.99-2.94-6.84v-2.67c0-2.85 1-5.12 3.01-6.81 2-1.68 4.66-2.53 7.97-2.53h4.55c1.58 0 3.23.26 4.93.77 1.7.52 3.16 1.22 4.37 2.11v-6.81c0-2.2-.68-4-2.03-5.4s-3.1-2.11-5.25-2.11h-5.46c-2.19 0-3.96.52-5.32 1.54-1.35 1.03-2.03 2.41-2.03 4.14h-3.78c0-2.71 1.03-4.89 3.08-6.52 2.05-1.64 4.73-2.46 8.04-2.46h5.46c3.31 0 5.96.98 7.94 2.95 1.98 1.96 2.97 4.59 2.97 7.86v24.77h-3.57v-5.47c-1.21 1.87-2.71 3.35-4.48 4.42-1.77 1.08-3.57 1.61-5.39 1.61h-4.27c-3.23.01-5.84-.84-7.8-2.55zm12.17-.81c1.96 0 3.84-.7 5.63-2.1s3.16-3.25 4.09-5.54v-3.79c-1.03-.98-2.39-1.78-4.09-2.39s-3.44-.91-5.21-.91h-4.55c-2.19 0-3.94.55-5.25 1.65s-1.96 2.56-1.96 4.38v2.67c0 1.83.63 3.29 1.89 4.39s2.96 1.65 5.11 1.65h4.34z"/><path d="m-275.6 448.72h3.64v5.96c1.17-2.01 2.65-3.6 4.44-4.77s3.63-1.75 5.49-1.75h4.69c3.03 0 5.49 1.06 7.38 3.19s2.83 4.95 2.83 8.46v23.93h-3.71v-24c0-2.43-.61-4.41-1.82-5.93s-2.8-2.28-4.76-2.28h-4.55c-2.1 0-4.08.87-5.95 2.6s-3.17 3.98-3.92 6.74v22.87h-3.78v-35.02z"/><path d="m-231.74 495.7c-1.87-1.52-2.91-3.52-3.15-6h3.71c.19 1.5.87 2.7 2.06 3.61s2.67 1.37 4.44 1.37h5.53c2.56 0 4.58-.87 6.05-2.6s2.2-4.09 2.2-7.09v-7.79c-1.26 1.96-2.79 3.54-4.58 4.74-1.8 1.19-3.56 1.79-5.28 1.79h-4.55c-3.08 0-5.57-1.04-7.48-3.12s-2.87-4.83-2.87-8.24v-23.65h3.78v23.72c0 2.34.61 4.25 1.82 5.72s2.8 2.21 4.76 2.21h4.41c2.05 0 4.07-.92 6.05-2.77s3.3-4.06 3.95-6.63v-22.24h3.71v36.27c0 4.02-1.07 7.19-3.22 9.51s-5.06 3.47-8.74 3.47h-5.53c-2.85 0-5.21-.76-7.07-2.28z"/></g><path d="m1754.42 273.91c-7.91-19.08-18.99-35.69-33.22-49.82-6.8-6.75-14.17-12.75-22.08-18.04.31 4.53.49 9.11.46 13.8-.15 22.79-4.3 43.74-12.46 62.87-8.16 19.12-19.44 35.59-33.85 49.39-13.08 12.54-28.16 22.45-45.19 29.8-1.73.74-3.45 1.49-5.22 2.18-19.19 7.52-39.89 11.21-62.11 11.07-17.43-.11-33.88-2.6-49.4-7.41 1.64 1.87 3.34 3.7 5.08 5.5 13.89 14.32 30.43 25.5 49.61 33.54s40.16 12.06 62.95 12.06c22.78 0 43.7-4.02 62.74-12.06 19.03-8.03 35.57-19.21 49.61-33.54 1.33-1.36 2.6-2.76 3.88-4.16 12.15-13.37 21.72-28.71 28.64-46.04 3.39-8.49 5.98-17.3 7.87-26.4-1.86-7.86-4.29-15.44-7.31-22.74z" fill="#30539f"/><path d="m1753.85 198.97c-7.65-19.14-18.49-35.87-32.52-50.2-14.04-14.32-30.57-25.5-49.61-33.54-4.64-1.96-9.4-3.67-14.27-5.15-15.09-4.6-31.24-6.9-48.47-6.9-16.75 0-32.51 2.19-47.3 6.53-12.95 13.28-23.25 28.7-30.83 46.31-6.48 15.09-10.39 31.39-11.82 48.87 8.72-5.68 18.08-10.51 28.1-14.44 19.19-7.52 39.9-11.21 62.11-11.07s42.87 4.1 61.96 11.86c9.97 4.06 19.27 9 27.91 14.79 7.91 5.3 15.28 11.3 22.08 18.04 14.23 14.13 25.31 30.74 33.22 49.82 3.03 7.31 5.46 14.88 7.3 22.73 2.37-11.41 3.59-23.28 3.59-35.64.01-22.19-3.81-42.87-11.45-62.01z" fill="#32b4b1"/><path d="m1563.27 331.52c-14.23-13.98-25.3-30.59-33.22-49.82-7.91-19.23-11.8-40.23-11.65-63.02.03-4.68.27-9.26.64-13.78 1.42-17.48 5.34-33.79 11.82-48.87 7.58-17.62 17.88-33.04 30.83-46.31-5.34 1.57-10.56 3.39-15.64 5.52-19.18 8.04-35.71 19.22-49.61 33.54s-24.67 31.06-32.31 50.2c-7.65 19.15-11.46 39.83-11.46 62.04 0 11.22.98 22.04 2.93 32.47 1.91 10.23 4.75 20.09 8.54 29.56 6.68 16.75 15.76 31.65 27.23 44.7 15.51 4.81 31.97 7.3 49.4 7.41 22.21.14 42.92-3.54 62.11-11.07 1.77-.69 3.49-1.44 5.22-2.18-16.95-7.58-31.9-17.68-44.83-30.39z" fill="#0a85c7"/><path d="m675.87 273.91c-7.91-19.08-18.99-35.69-33.22-49.82-6.8-6.75-14.17-12.75-22.08-18.04.31 4.53.49 9.11.46 13.8-.15 22.79-4.3 43.74-12.46 62.87-8.16 19.12-19.44 35.59-33.85 49.39-13.08 12.54-28.16 22.45-45.19 29.8-1.73.74-3.45 1.49-5.22 2.18-19.19 7.52-39.89 11.21-62.11 11.07-17.43-.11-33.88-2.6-49.4-7.41 1.64 1.87 3.34 3.7 5.08 5.5 13.89 14.32 30.43 25.5 49.61 33.54s40.16 12.06 62.95 12.06c22.78 0 43.7-4.02 62.74-12.06 19.03-8.03 35.57-19.21 49.61-33.54 1.33-1.36 2.6-2.76 3.88-4.16 12.15-13.37 21.72-28.71 28.64-46.04 3.39-8.49 5.98-17.3 7.87-26.4-1.86-7.86-4.29-15.44-7.31-22.74z" fill="#30539f"/><path d="m675.3 198.97c-7.65-19.14-18.49-35.87-32.52-50.2-14.04-14.32-30.57-25.5-49.61-33.54-4.64-1.96-9.4-3.67-14.27-5.15-15.09-4.6-31.24-6.9-48.47-6.9-16.75 0-32.51 2.19-47.3 6.53-12.95 13.28-23.25 28.7-30.83 46.31-6.48 15.09-10.39 31.39-11.82 48.87 8.72-5.68 18.08-10.51 28.1-14.44 19.19-7.52 39.9-11.21 62.11-11.07s42.87 4.1 61.96 11.86c9.97 4.06 19.27 9 27.91 14.79 7.91 5.3 15.28 11.3 22.08 18.04 14.23 14.13 25.31 30.74 33.22 49.82 3.03 7.31 5.46 14.88 7.3 22.73 2.37-11.41 3.59-23.28 3.59-35.64.01-22.19-3.81-42.87-11.45-62.01z" fill="#32b4b1"/><path d="m484.72 331.52c-14.23-13.98-25.3-30.59-33.22-49.82-7.91-19.23-11.8-40.23-11.65-63.02.03-4.68.27-9.26.64-13.78 1.42-17.48 5.34-33.79 11.82-48.87 7.58-17.62 17.88-33.04 30.83-46.31-5.34 1.57-10.56 3.39-15.64 5.52-19.18 8.04-35.71 19.22-49.61 33.54s-24.67 31.06-32.31 50.2c-7.65 19.15-11.46 39.83-11.46 62.04 0 11.22.98 22.04 2.93 32.47 1.91 10.23 4.75 20.09 8.54 29.56 6.68 16.75 15.76 31.65 27.23 44.7 15.51 4.81 31.97 7.3 49.4 7.41 22.21.14 42.92-3.54 62.11-11.07 1.77-.69 3.49-1.44 5.22-2.18-16.95-7.58-31.9-17.68-44.83-30.39z" fill="#0a85c7"/><path d="m89.09 399.56v-280.6c0-6.91 5.6-12.51 12.51-12.51h51.39c6.91 0 12.51 5.6 12.51 12.51v102.25h119.59v-102.25c0-6.91 5.6-12.51 12.51-12.51h51.39c6.91 0 12.51 5.6 12.51 12.51v280.6c0 6.91-5.6 12.51-12.51 12.51h-51.39c-6.91 0-12.51-5.6-12.51-12.51v-97.56h-119.59v97.56c0 6.91-5.6 12.51-12.51 12.51h-51.39c-6.91 0-12.51-5.6-12.51-12.51z" fill="#30539f"/><path d="m701.18 399.56v-280.6c0-6.91 5.6-12.51 12.51-12.51h55.15c4.77 0 9.13 2.72 11.23 7l79.62 162.42 79.15-162.39c2.1-4.3 6.46-7.03 11.25-7.03h54.65c6.91 0 12.51 5.6 12.51 12.51v280.6c0 6.91-5.6 12.51-12.51 12.51h-51.39c-6.91 0-12.51-5.6-12.51-12.51v-163.08l-56.84 116.37c-2.1 4.3-6.46 7.02-11.24 7.02h-26.64c-4.77 0-9.12-2.71-11.22-6.98l-57.31-116.4v163.08c0 6.91-5.6 12.51-12.51 12.51h-51.39c-6.91-.01-12.51-5.61-12.51-12.52z" fill="#30539f"/></svg>